<svg width="46" height="46" viewBox="0 0 46 46" fill="none" xmlns="http://www.w3.org/2000/svg">
<path d="M23 45.5C35.4264 45.5 45.5 35.4264 45.5 23C45.5 10.5736 35.4264 0.5 23 0.5C10.5736 0.5 0.5 10.5736 0.5 23C0.5 35.4264 10.5736 45.5 23 45.5Z" fill="white" stroke="#ffffff"/>
<path d="M14.0016 25.8167L23.2594 16.4704L32.5236 25.8167C34.3482 21.9667 33.68 17.2223 30.5192 14.0333C26.5102 9.98888 20.015 9.98888 16.0061 14.0333C12.8452 17.2223 12.1771 21.9667 14.0016 25.8167Z" fill="#0058FF"/>
<path d="M23.2588 16.4705L14.001 25.8168C14.4892 26.8474 15.1574 27.8196 16.0054 28.6752L17.8172 30.5094L23.2588 25.0196L28.7003 30.5094L30.5121 28.6816C31.3601 27.8261 32.0283 26.8603 32.5165 25.8233L23.2588 16.4705Z" fill="#08B2FA"/>
<path d="M23.257 25.0153L17.8147 30.5059L23.257 35.9964L28.6992 30.5059L23.257 25.0153Z" fill="#86EAFA"/>
</svg>
