<svg width="29" height="29" viewBox="0 0 29 29" fill="none" xmlns="http://www.w3.org/2000/svg">
<path fill-rule="evenodd" clip-rule="evenodd" d="M1.20825 14.4999C1.20825 7.15913 7.15913 1.20825 14.4999 1.20825C21.8407 1.20825 27.7916 7.15913 27.7916 14.4999C27.7916 16.6857 27.2631 18.7512 26.3261 20.5726L27.0228 23.3595C27.5759 25.5719 25.5719 27.5759 23.3595 27.0228L20.5726 26.3261C18.7512 27.2631 16.6857 27.7916 14.4999 27.7916C7.15913 27.7916 1.20825 21.8407 1.20825 14.4999ZM14.4999 3.62492C8.49382 3.62492 3.62492 8.49382 3.62492 14.4999C3.62492 20.506 8.49382 25.3749 14.4999 25.3749C16.4349 25.3749 18.2485 24.8706 19.8201 23.9872C20.0892 23.8359 20.4059 23.7934 20.7053 23.8682L23.9457 24.6783C24.3882 24.789 24.789 24.3882 24.6783 23.9457L23.8682 20.7053C23.7934 20.4059 23.8359 20.0892 23.9872 19.8201C24.8706 18.2485 25.3749 16.4349 25.3749 14.4999C25.3749 8.49382 20.506 3.62492 14.4999 3.62492Z" fill="white"/>
<path fill-rule="evenodd" clip-rule="evenodd" d="M7.854 12.0833C7.854 11.416 8.39499 10.875 9.06234 10.875H19.9373C20.6047 10.875 21.1457 11.416 21.1457 12.0833C21.1457 12.7507 20.6047 13.2917 19.9373 13.2917H9.06234C8.39499 13.2917 7.854 12.7507 7.854 12.0833Z" fill="white"/>
<path fill-rule="evenodd" clip-rule="evenodd" d="M7.854 16.9166C7.854 16.2492 8.39499 15.7083 9.06234 15.7083H16.3123C16.9797 15.7083 17.5207 16.2492 17.5207 16.9166C17.5207 17.5839 16.9797 18.1249 16.3123 18.1249H9.06234C8.39499 18.1249 7.854 17.5839 7.854 16.9166Z" fill="white"/>
</svg>
