<svg width="22" height="16" viewBox="0 0 22 16" fill="none" xmlns="http://www.w3.org/2000/svg">
<path fill-rule="evenodd" clip-rule="evenodd" d="M0 2.5C0 1.11929 1.11929 0 2.5 0H19.5C20.8807 0 22 1.11929 22 2.5V13.5C22 14.8807 20.8807 16 19.5 16H2.5C1.11929 16 0 14.8807 0 13.5V2.5ZM2.5 2C2.22386 2 2 2.22386 2 2.5V13.5C2 13.7761 2.22386 14 2.5 14H19.5C19.7761 14 20 13.7761 20 13.5V2.5C20 2.22386 19.7761 2 19.5 2H2.5Z" fill="#8290A2"/>
<path fill-rule="evenodd" clip-rule="evenodd" d="M2.4971 2C2.22418 2 2 2.22292 2 2.49844V3.6498C2 3.82542 2.09214 3.98816 2.24272 4.07852L11 9.33376L19.7573 4.07852C19.9079 3.98816 20 3.82542 20 3.6498V2.49844C20 2.22292 19.7758 2 19.5029 2H2.4971ZM0 2.49844C0 1.11883 1.11913 0 2.4971 0H19.5029C20.8809 0 22 1.11883 22 2.49844V3.6498C22 4.52789 21.5393 5.34161 20.7864 5.79344L11.5146 11.3575C11.1978 11.5475 10.8022 11.5475 10.4854 11.3575L1.2136 5.79344C0.460679 5.34161 0 4.52789 0 3.6498V2.49844Z" fill="#8290A2"/>
</svg>
