<svg width="22" height="22" viewBox="0 0 22 22" fill="none" xmlns="http://www.w3.org/2000/svg">
<path fill-rule="evenodd" clip-rule="evenodd" d="M4.4842 2C4.38204 2.00044 4.23286 2.04503 4.08441 2.22647L2.51299 4.1471C2.31971 4.38333 2.14465 4.76915 2.05678 5.22439C1.96883 5.68001 1.98841 6.1003 2.07839 6.3855C2.08989 6.42198 2.09929 6.45908 2.10655 6.49663C2.10659 6.4968 2.10663 6.49702 2.10668 6.49728C2.10718 6.49971 2.10844 6.50579 2.11057 6.51543C2.11483 6.53472 2.12255 6.56827 2.13453 6.61535C2.1585 6.70952 2.19951 6.85787 2.26395 7.05474C2.39282 7.4484 2.61548 8.03641 2.98319 8.77362C3.71787 10.2466 5.03528 12.3227 7.35145 14.6389C9.66761 16.955 11.7437 18.2724 13.2167 19.0071C13.9539 19.3748 14.5419 19.5975 14.9356 19.7264C15.1324 19.7908 15.2808 19.8318 15.375 19.8558C15.422 19.8678 15.4556 19.8755 15.4749 19.8797C15.4845 19.8819 15.4906 19.8831 15.493 19.8836L15.4923 19.8835L15.491 19.8832L15.4902 19.8831C15.537 19.892 15.5831 19.9042 15.6281 19.9196C15.8936 20.0106 16.302 20.0329 16.7596 19.942C17.2147 19.8517 17.6056 19.6717 17.8432 19.4773L19.7638 17.9059C19.9482 17.755 19.9914 17.6059 19.9917 17.506C19.992 17.4053 19.9488 17.2551 19.7665 17.1032L16.9203 14.7313C16.856 14.6778 16.7235 14.6167 16.5422 14.6069C16.3613 14.597 16.2228 14.6431 16.1519 14.6904L14.5709 15.7444C14.4053 15.8548 14.2104 15.9133 14.0114 15.9123L14.0162 14.9123C14.0114 15.9123 14.011 15.9123 14.0105 15.9123L14.0077 15.9123L14.003 15.9122L13.9907 15.9121C13.9813 15.9119 13.9693 15.9116 13.9549 15.9112C13.926 15.9103 13.8873 15.9086 13.8396 15.9058C13.7441 15.9 13.6122 15.8892 13.4499 15.8689C13.126 15.8284 12.6776 15.7495 12.1563 15.5956C11.1143 15.2878 9.76193 14.6741 8.53908 13.4512C7.31623 12.2284 6.70247 10.876 6.39475 9.83404C6.24076 9.31267 6.16191 8.86435 6.12139 8.5404C6.10109 8.37813 6.09029 8.24616 6.08455 8.15073C6.08167 8.10299 6.08005 8.06429 6.07915 8.03543C6.07869 8.021 6.07841 8.00901 6.07824 7.99956L6.07806 7.98731L6.07802 7.98264L6.078 7.97977C6.07799 7.97935 6.07799 7.97894 7.07798 7.97406L6.07799 7.97894C6.07702 7.77986 6.1355 7.58501 6.24593 7.41936L7.29993 5.83836C7.43187 5.64045 7.41018 5.25142 7.25903 5.07005L4.88713 2.22376C4.73637 2.04285 4.58635 1.99956 4.4842 2ZM8.1001 8.24366L8.96403 6.94776C9.58894 6.01039 9.51174 4.64919 8.79548 3.78968L6.42357 0.94339C5.9225 0.34211 5.22197 -0.00319835 4.47557 2.23303e-05C3.7292 0.00324289 3.03184 0.354579 2.5365 0.959989L0.965075 2.88062C0.510938 3.43568 0.226582 4.15346 0.0930281 4.84532C-0.0370555 5.51921 -0.0432552 6.26796 0.155077 6.93509C0.155875 6.93875 0.15671 6.94256 0.157583 6.94652C0.166353 6.98625 0.178988 7.04053 0.196314 7.10861C0.230968 7.24478 0.284389 7.43618 0.363201 7.67694C0.520849 8.15853 0.779992 8.83733 1.19346 9.6663C2.02112 11.3257 3.46352 13.5794 5.93723 16.0531C8.41094 18.5268 10.6646 19.9692 12.324 20.7968C13.153 21.2103 13.8318 21.4695 14.3134 21.6271C14.5541 21.7059 14.7455 21.7593 14.8817 21.794C14.9496 21.8113 15.0038 21.8239 15.0435 21.8327C15.7199 22.0482 16.4776 22.037 17.1489 21.9038C17.8439 21.7659 18.5604 21.4746 19.1097 21.0252L21.0303 19.4538C21.6372 18.9572 21.9896 18.2595 21.9917 17.5117C21.9938 16.7646 21.6461 16.0661 21.0469 15.5667L18.2006 13.1948C17.7483 12.8179 17.1812 12.6387 16.6509 12.6098C16.1204 12.5809 15.5355 12.6977 15.0425 13.0263L13.7466 13.8902C13.7311 13.8884 13.7149 13.8865 13.6982 13.8844C13.4645 13.8552 13.1245 13.7961 12.7227 13.6775C11.9185 13.4399 10.8859 12.9696 9.95329 12.037C9.0207 11.1044 8.55036 10.0718 8.31284 9.26756C8.1942 8.86584 8.13515 8.52579 8.10592 8.29215C8.10383 8.27542 8.10189 8.25925 8.1001 8.24366Z" fill="#8290A2"/>
</svg>
