<svg width="44" height="44" viewBox="0 0 44 44" fill="none" xmlns="http://www.w3.org/2000/svg">
<path fill-rule="evenodd" clip-rule="evenodd" d="M11 11C11 4.92487 15.9249 0 22 0C28.0751 0 33 4.92487 33 11C33 17.0751 28.0751 22 22 22C15.9249 22 11 17.0751 11 11ZM22 4C18.134 4 15 7.13401 15 11C15 14.866 18.134 18 22 18C25.866 18 29 14.866 29 11C29 7.13401 25.866 4 22 4Z" fill="#abb5bb"/>
<path fill-rule="evenodd" clip-rule="evenodd" d="M8.81408 26.9872C12.5365 25.3993 17.3565 24 22 24C26.6435 24 31.4635 25.3993 35.1859 26.9872C37.0586 27.786 38.7075 28.6555 39.9688 29.4668C40.5972 29.8711 41.16 30.2805 41.6154 30.6794C42.0182 31.0322 42.5292 31.5391 42.8167 32.1637C43.0908 32.7589 43.2737 33.5145 43.4036 34.1683C43.5419 34.8642 43.6526 35.6196 43.7384 36.3024C43.8247 36.9892 43.8885 37.6248 43.9307 38.0876C43.9519 38.3197 43.9678 38.5097 43.9784 38.6429C43.9838 38.7095 43.9878 38.7619 43.9905 38.7983L43.9937 38.8408L43.9949 38.8571C43.9949 38.8573 43.9949 38.8578 42 39L43.9949 38.8571C43.9983 38.9044 44 38.9526 44 39C44 41.7529 41.7691 44 39.0058 44H4.9942C2.23087 44 0 41.7529 0 39C0 38.9526 0.00168765 38.9051 0.00505972 38.8578L2 39C0.00505972 38.8578 0.00504851 38.858 0.00505972 38.8578L0.00629711 38.8408L0.00945628 38.7983C0.0122043 38.7619 0.0162408 38.7095 0.0215747 38.6429C0.0322375 38.5097 0.0481157 38.3197 0.0692872 38.0876C0.111518 37.6248 0.175348 36.9892 0.261632 36.3024C0.347412 35.6196 0.458108 34.8642 0.596401 34.1683C0.726338 33.5145 0.909238 32.7589 1.18325 32.1637C1.47075 31.5391 1.98178 31.0322 2.38464 30.6794C2.84002 30.2805 3.40276 29.8711 4.03124 29.4668C5.29251 28.6555 6.9414 27.786 8.81408 26.9872ZM4.00149 39.0551C4.03017 39.5833 4.46839 40 4.9942 40H39.0058C39.5316 40 39.9698 39.5833 39.9985 39.0551C39.9965 39.0294 39.9941 38.9983 39.9912 38.9622C39.9816 38.8419 39.9669 38.6667 39.9473 38.4511C39.9078 38.0188 39.8486 37.4303 39.7696 36.801C39.69 36.1677 39.593 35.5151 39.4803 34.948C39.3777 34.4316 39.282 34.0926 39.2159 33.9159C39.1838 33.8803 39.1125 33.8045 38.9797 33.6882C38.7179 33.4589 38.3273 33.1671 37.8048 32.8309C36.764 32.1615 35.3201 31.3932 33.6164 30.6664C30.1861 29.2031 25.9193 28 22 28C18.0807 28 13.8139 29.2031 10.3836 30.6664C8.67991 31.3932 7.23599 32.1615 6.19523 32.8309C5.6727 33.1671 5.28212 33.4589 5.02029 33.6882C4.88753 33.8045 4.81617 33.8804 4.78413 33.9159C4.718 34.0926 4.6223 34.4316 4.51967 34.948C4.40697 35.5151 4.31 36.1677 4.23043 36.801C4.15137 37.4303 4.09219 38.0188 4.05274 38.4511C4.03307 38.6667 4.01844 38.8419 4.00881 38.9622C4.00592 38.9983 4.00348 39.0294 4.00149 39.0551Z" fill="#abb5bb"/>
</svg>
